<?xml version="1.0" encoding="iso-8859-1"?>
<!-- Generator: Adobe Illustrator 19.0.0, SVG Export Plug-In . SVG Version: 6.00 Build 0)  -->
<svg version="1.1" id="Layer_1" xmlns="http://www.w3.org/2000/svg" xmlns:xlink="http://www.w3.org/1999/xlink" x="0px" y="0px"
	 viewBox="0 0 433.875 433.875" style="enable-background:new 0 0 433.875 433.875;" xml:space="preserve">
<g>
	<path style="fill:#2488FF;" d="M53.577,284.604c-33.258-80.292-2.76-171.358,68.054-216.621v66.125h40V15.113H42.636v40h29.849
		c-24.058,21.442-43.167,48.2-55.863,78.852c-22.163,53.506-22.163,112.44,0,165.947c14.501,35.008,37.946,65.673,67.801,88.681
		c28.94,22.301,63.328,37.052,99.447,42.657l6.134-39.527C128.402,382.163,77.401,342.118,53.577,284.604z"/>
	<path style="fill:#2488FF;" d="M417.253,299.911c22.163-53.506,22.163-112.441,0-165.947
		c-14.501-35.008-37.946-65.673-67.802-88.68c-28.939-22.302-63.328-37.053-99.447-42.658l-6.134,39.527
		c61.604,9.559,112.604,49.604,136.428,107.118c18.074,43.635,18.074,91.697,0,135.332c-14.05,33.919-37.717,62.002-68.054,81.318
		v-66.155h-40v118.995H391.24v-40h-29.85C385.448,357.321,404.557,330.563,417.253,299.911z"/>
</g>
<g>
</g>
<g>
</g>
<g>
</g>
<g>
</g>
<g>
</g>
<g>
</g>
<g>
</g>
<g>
</g>
<g>
</g>
<g>
</g>
<g>
</g>
<g>
</g>
<g>
</g>
<g>
</g>
<g>
</g>
</svg>
