<?xml version="1.0" standalone="no"?>
<!DOCTYPE svg PUBLIC "-//W3C//DTD SVG 20010904//EN"
 "http://www.w3.org/TR/2001/REC-SVG-20010904/DTD/svg10.dtd">
<svg version="1.0" xmlns="http://www.w3.org/2000/svg"
 width="512.000000pt" height="512.000000pt" viewBox="0 0 512.000000 512.000000"
 preserveAspectRatio="xMidYMid meet" fill="blue">
<metadata>
Created by potrace 1.16, written by Peter Selinger 2001-2019
</metadata>
<g transform="translate(0.000000,512.000000) scale(0.100000,-0.100000)"
fill="#000000" stroke="none">
<path d="M203 4958 c-174 -172 -196 -198 -191 -231 3 -19 32 5 192 163 103
102 192 193 197 203 8 14 5 17 -17 17 -21 0 -60 -33 -181 -152z"/>
<path d="M303 4858 c-140 -139 -264 -265 -275 -281 -10 -15 -18 -37 -16 -50 3
-18 49 23 292 263 158 157 292 293 297 303 8 14 5 17 -17 17 -22 0 -75 -47
-281 -252z"/>
<path d="M402 4758 c-194 -194 -362 -365 -373 -381 -11 -15 -19 -37 -17 -50 4
-18 67 40 392 363 213 212 392 393 397 403 8 14 5 17 -18 17 -22 0 -89 -62
-381 -352z"/>
<path d="M502 4658 c-249 -249 -462 -465 -473 -481 -11 -15 -19 -37 -17 -50 4
-18 84 57 492 463 268 267 492 493 497 503 8 14 5 17 -18 17 -22 0 -104 -76
-481 -452z"/>
<path d="M602 4558 c-304 -304 -562 -565 -573 -581 -11 -15 -19 -37 -17 -50 4
-18 101 75 592 563 323 322 592 593 597 603 8 14 5 17 -18 17 -23 0 -118 -91
-581 -552z"/>
<path d="M702 4458 c-359 -359 -662 -665 -673 -681 -11 -15 -19 -37 -17 -50 4
-18 118 92 692 663 378 377 692 693 697 703 8 14 5 17 -18 17 -23 0 -133 -106
-681 -652z"/>
<path d="M802 4358 c-414 -414 -762 -765 -773 -781 -11 -15 -19 -37 -17 -50 3
-19 38 11 227 198 184 182 217 210 188 165 -19 -30 -56 -95 -82 -145 -41 -76
-70 -112 -192 -236 -110 -113 -143 -153 -143 -173 0 -14 3 -26 6 -26 4 0 56
48 116 108 107 105 109 106 90 62 -10 -25 -27 -70 -37 -100 -14 -43 -35 -73
-96 -137 -56 -58 -79 -90 -79 -108 0 -14 3 -25 6 -25 3 0 30 24 61 53 48 45
55 48 50 27 -3 -14 -11 -50 -18 -80 -9 -41 -22 -67 -55 -104 -27 -29 -44 -58
-44 -73 0 -27 9 -25 48 11 l24 21 -6 -37 c-3 -21 -9 -55 -12 -75 -3 -20 -16
-51 -30 -68 -13 -18 -24 -42 -24 -54 0 -19 3 -20 20 -11 19 10 20 8 20 -52 0
-47 -5 -69 -20 -88 -11 -14 -20 -35 -20 -48 0 -20 3 -21 20 -12 19 10 20 8 20
-52 0 -47 -5 -69 -20 -88 -11 -14 -20 -36 -20 -49 0 -22 1 -23 24 -8 l23 16 7
-55 c6 -51 4 -58 -25 -93 -19 -24 -29 -48 -27 -61 l3 -23 33 27 c17 15 32 24
32 19 1 -4 5 -28 9 -53 9 -43 8 -46 -35 -93 -26 -29 -44 -59 -44 -73 0 -13 2
-24 5 -24 3 0 26 19 50 41 47 44 47 44 63 -21 8 -34 6 -38 -55 -103 -43 -46
-63 -75 -63 -93 0 -32 18 -23 85 45 27 28 52 51 56 51 3 0 12 -20 19 -45 l13
-45 -87 -90 c-62 -65 -86 -96 -86 -115 0 -35 17 -25 110 69 41 42 77 76 81 76
3 0 13 -19 22 -42 l17 -42 -115 -117 c-87 -88 -115 -124 -115 -143 0 -14 3
-26 7 -26 3 0 59 53 124 117 65 64 120 115 122 112 1 -2 11 -21 20 -43 l18
-39 -146 -147 c-113 -115 -145 -154 -145 -174 0 -39 15 -28 174 133 l140 140
23 -41 24 -41 -181 -182 c-142 -144 -180 -188 -180 -209 0 -14 3 -26 7 -26 4
0 91 84 193 186 l187 185 22 -36 c11 -20 21 -39 21 -43 0 -3 -97 -103 -215
-222 -172 -173 -215 -222 -215 -243 0 -15 3 -27 7 -27 4 0 108 100 231 223
l223 222 25 -30 c13 -16 24 -34 24 -40 0 -5 -115 -124 -255 -265 -206 -207
-255 -262 -255 -283 0 -15 3 -27 7 -27 4 0 127 120 274 266 l266 266 28 -37
28 -36 -301 -303 c-248 -248 -302 -307 -302 -330 0 -22 3 -25 18 -17 9 5 152
145 317 310 287 288 300 300 318 283 51 -46 64 -29 -307 -401 -283 -284 -346
-352 -346 -374 0 -15 3 -27 7 -27 4 0 168 161 365 357 l358 358 32 -33 33 -32
-373 -373 c-204 -205 -372 -376 -372 -380 0 -4 12 -7 27 -7 22 0 92 65 389
361 l362 361 37 -27 36 -28 -325 -327 c-179 -179 -326 -329 -326 -333 0 -4 12
-7 27 -7 22 0 85 58 343 315 l316 315 37 -27 38 -27 -281 -281 c-154 -154
-280 -284 -280 -288 0 -4 12 -7 27 -7 21 0 79 52 299 271 l272 272 34 -23 c18
-13 35 -25 37 -27 3 -2 -102 -111 -232 -241 -130 -131 -237 -241 -237 -245 0
-4 12 -7 27 -7 21 0 72 46 259 231 l232 231 34 -23 c18 -12 35 -24 37 -26 3
-2 -84 -93 -192 -201 -108 -109 -197 -201 -197 -205 0 -4 12 -7 26 -7 21 0 67
40 218 190 106 105 196 190 200 190 5 0 24 -10 43 -21 l35 -22 -161 -161 c-89
-90 -161 -165 -161 -169 0 -4 12 -7 26 -7 21 0 61 35 185 157 l159 156 40 -18
c22 -10 40 -21 40 -24 0 -4 -52 -58 -116 -121 -135 -135 -146 -150 -108 -150
20 0 55 29 154 125 l127 126 47 -18 46 -19 -91 -89 c-109 -109 -120 -125 -84
-125 19 0 52 25 125 96 l100 97 45 -13 c25 -7 45 -16 45 -19 0 -4 -27 -33 -61
-66 -78 -78 -88 -95 -54 -95 18 0 48 22 103 73 l77 73 48 -14 48 -14 -50 -53
c-28 -30 -51 -56 -51 -59 0 -3 11 -6 24 -6 16 0 46 19 83 53 l58 53 53 -10 54
-11 -27 -25 c-15 -14 -31 -33 -36 -43 -17 -31 34 -20 78 18 41 35 77 43 130
29 l23 -6 -21 -27 -21 -26 22 -3 c13 -2 37 8 59 25 31 24 43 28 93 25 l58 -3
-16 -24 c-16 -24 -15 -25 6 -25 13 0 38 11 56 25 27 20 44 25 94 25 l60 0 -16
-25 c-16 -24 -16 -25 8 -25 13 0 39 13 58 29 28 22 49 30 105 36 l70 7 -21
-24 c-36 -39 -38 -48 -11 -48 15 0 44 17 74 44 38 35 60 46 108 55 33 7 69 15
80 18 13 4 2 -13 -32 -50 -29 -31 -53 -58 -53 -61 0 -3 11 -6 25 -6 18 0 49
22 103 74 71 67 84 75 171 104 l95 32 -97 -99 c-53 -54 -97 -101 -97 -105 0
-3 12 -6 26 -6 20 0 57 30 158 129 125 123 137 132 261 195 l130 67 -187 -189
c-104 -103 -188 -191 -188 -195 0 -4 12 -7 27 -7 21 0 79 52 302 273 152 151
310 300 351 332 96 75 300 279 375 375 32 41 181 199 332 351 221 223 273 281
273 302 0 15 -3 27 -7 27 -4 0 -92 -84 -195 -187 l-189 -188 67 130 c63 124
72 136 195 261 99 101 129 138 129 158 0 14 -3 26 -6 26 -4 0 -51 -44 -105
-97 l-99 -97 32 95 c29 87 37 100 104 171 52 54 74 85 74 103 0 14 -3 25 -6
25 -3 0 -30 -24 -61 -52 -37 -35 -54 -46 -50 -33 3 11 11 47 18 80 9 48 20 70
55 108 27 30 44 59 44 74 0 27 -9 25 -48 -11 l-24 -21 7 70 c6 56 14 77 36
105 16 19 29 45 29 58 0 24 -1 24 -25 8 l-25 -16 0 60 c0 50 5 67 25 94 14 18
25 43 25 56 0 21 -1 22 -25 6 l-24 -16 -3 58 c-3 50 1 62 25 93 17 22 27 46
25 59 l-3 22 -26 -21 -27 -21 -6 23 c-14 53 -6 89 29 130 38 44 49 95 18 78
-10 -5 -29 -21 -43 -36 l-25 -27 -11 54 -10 53 53 58 c34 37 53 67 53 83 0 13
-3 24 -6 24 -3 0 -29 -23 -59 -51 l-53 -50 -14 48 -14 48 73 77 c51 55 73 85
73 103 0 34 -17 24 -95 -54 -33 -34 -62 -61 -66 -61 -3 0 -12 20 -19 45 l-13
45 97 100 c71 73 96 106 96 125 0 36 -16 25 -125 -84 l-89 -91 -19 46 -18 47
126 127 c96 99 125 134 125 154 0 38 -15 27 -150 -108 -63 -64 -117 -116 -121
-116 -3 0 -14 18 -24 40 l-18 40 156 159 c122 124 157 164 157 185 0 14 -3 26
-7 26 -4 0 -79 -72 -169 -161 l-161 -161 -22 35 c-11 19 -21 38 -21 43 0 4 86
94 190 200 150 151 190 197 190 218 0 14 -3 26 -7 26 -4 0 -96 -89 -205 -197
-108 -108 -199 -195 -201 -192 -2 2 -14 19 -26 37 l-23 34 231 232 c185 187
231 238 231 259 0 15 -3 27 -7 27 -4 0 -114 -107 -245 -237 -130 -130 -239
-235 -241 -232 -2 2 -14 19 -27 37 l-23 34 272 272 c219 220 271 278 271 299
0 15 -3 27 -7 27 -4 0 -134 -126 -288 -280 l-281 -281 -27 38 -27 37 315 316
c257 258 315 321 315 343 0 15 -3 27 -7 27 -4 0 -154 -147 -333 -326 l-327
-325 -28 36 -27 37 361 362 c296 297 361 367 361 389 0 15 -3 27 -7 27 -4 0
-175 -168 -380 -372 l-373 -373 -32 33 -33 32 358 358 c196 197 357 361 357
365 0 4 -12 7 -27 7 -22 0 -90 -63 -374 -346 -372 -371 -355 -358 -401 -307
-17 18 -5 31 283 318 165 165 305 308 310 318 8 14 5 17 -17 17 -23 0 -82 -54
-330 -302 l-303 -301 -36 28 -37 28 266 266 c146 147 266 270 266 274 0 4 -12
7 -27 7 -21 0 -76 -49 -283 -255 -141 -140 -260 -255 -265 -255 -6 0 -23 11
-40 24 l-30 25 223 223 c122 123 222 227 222 231 0 4 -12 7 -27 7 -21 0 -70
-43 -243 -215 -119 -118 -219 -215 -222 -215 -4 0 -23 10 -43 21 l-36 22 185
187 c102 102 186 189 186 193 0 4 -12 7 -26 7 -21 0 -65 -38 -209 -180 l-182
-181 -41 24 -41 23 140 140 c161 159 172 174 133 174 -20 0 -59 -32 -174 -145
l-147 -146 -39 18 c-22 9 -41 19 -43 20 -3 2 48 57 112 122 64 65 117 121 117
124 0 4 -12 7 -26 7 -19 0 -55 -28 -143 -115 l-117 -115 -42 17 c-23 9 -42 19
-42 22 0 4 34 40 76 81 94 93 104 110 69 110 -19 0 -50 -24 -115 -86 l-90 -87
-45 13 c-25 7 -45 16 -45 19 0 4 23 29 51 56 68 67 77 85 45 85 -18 0 -47 -20
-93 -63 -65 -61 -69 -63 -103 -55 -65 16 -65 16 -21 63 22 24 41 47 41 50 0 3
-11 5 -24 5 -14 0 -44 -18 -73 -44 -47 -43 -50 -44 -93 -35 -25 4 -49 8 -53 9
-5 0 4 15 19 33 l27 32 -23 3 c-13 2 -37 -8 -61 -27 -35 -29 -42 -31 -93 -25
l-55 7 16 23 c15 23 14 24 -8 24 -13 0 -35 -9 -49 -20 -19 -15 -41 -20 -88
-20 -60 0 -62 1 -52 20 9 17 8 20 -12 20 -13 0 -34 -9 -48 -20 -19 -15 -41
-20 -88 -20 -60 0 -62 1 -52 20 9 17 8 20 -11 20 -12 0 -36 -11 -54 -24 -17
-14 -48 -27 -68 -30 -20 -3 -54 -9 -74 -12 l-38 -6 21 24 c36 39 38 48 11 48
-15 0 -44 -17 -73 -44 -37 -33 -63 -46 -104 -55 -30 -7 -66 -15 -80 -18 -21
-5 -18 2 28 50 28 31 52 58 52 61 0 3 -11 6 -25 6 -18 0 -50 -23 -108 -79 -64
-61 -94 -82 -137 -96 -30 -10 -75 -27 -100 -37 -44 -19 -43 -17 63 90 59 60
107 112 107 116 0 3 -12 6 -26 6 -20 0 -60 -33 -173 -143 -124 -122 -160 -151
-236 -192 -49 -26 -115 -63 -145 -82 -45 -29 -16 4 163 184 119 120 217 222
217 226 0 4 -12 7 -27 7 -23 0 -152 -125 -781 -752z m1538 339 c0 -1 -120
-121 -266 -267 -228 -227 -261 -256 -229 -205 132 212 266 350 425 439 65 36
70 38 70 33z m540 -55 c0 -4 -36 -43 -80 -87 l-80 -80 0 65 c0 62 2 66 42 107
l41 42 39 -20 c21 -11 38 -23 38 -27z m-817 -424 c-244 -244 -344 -338 -360
-338 -30 0 -29 18 3 83 20 40 104 131 357 385 l332 332 3 -62 3 -62 -338 -338z
m907 365 l31 -28 -141 -140 -140 -140 0 65 0 65 102 102 c57 57 106 103 110
103 4 0 21 -12 38 -27z m-1375 -134 c-29 -44 -71 -115 -94 -157 -31 -60 -64
-101 -149 -186 l-110 -108 -38 12 c-22 7 -43 15 -48 18 -6 3 481 502 490 502
1 0 -22 -36 -51 -81z m1480 41 l29 -31 -192 -192 -192 -192 0 65 0 65 157 157
c87 87 160 158 164 158 3 0 18 -14 34 -30z m-928 -388 l-255 -255 -57 8 -58 7
309 309 309 309 3 -62 3 -62 -254 -254z m-841 159 l-210 -210 -35 15 c-19 8
-37 17 -40 20 -9 10 169 174 255 236 74 53 223 147 234 148 3 0 -89 -94 -204
-209z m1884 89 c0 -3 -106 -111 -235 -240 l-235 -235 0 65 0 65 208 208 207
208 28 -33 c15 -18 27 -35 27 -38z m548 -57 c-34 -35 -65 -63 -68 -63 -3 0
-16 17 -28 38 l-21 37 51 52 51 51 39 -25 39 -26 -63 -64z m147 2 l30 -25 -92
-92 -92 -92 -20 44 -20 45 72 73 c39 39 76 72 82 72 5 -1 24 -12 40 -25z
m-634 -31 l22 -36 -219 -219 -219 -219 -57 0 c-32 0 -58 3 -58 7 0 10 492 503
502 503 3 0 16 -16 29 -36z m-1018 -276 l-169 -169 -58 7 -58 7 224 224 223
223 3 -62 3 -62 -168 -168z m1786 191 c2 -13 -208 -209 -223 -209 -10 0 -23
14 -31 33 l-14 32 101 102 102 102 32 -27 c18 -15 33 -30 33 -33z m-694 -40
l19 -40 -145 -144 -144 -144 -70 -7 -70 -6 190 191 c104 105 193 191 196 191
3 0 14 -18 24 -41z m-1002 -261 l-79 -79 -58 7 -58 7 134 134 133 133 3 -62 3
-62 -78 -78z m1071 130 l16 -42 -57 -58 c-49 -50 -64 -59 -112 -68 -31 -6 -67
-13 -81 -16 -19 -4 4 24 90 110 63 64 117 116 121 116 3 0 13 -19 23 -42z
m978 -235 l17 -29 -218 -218 -218 -218 -11 54 -11 53 202 202 c129 130 205
199 211 193 6 -4 19 -21 28 -37z m-3429 -13 c20 -8 37 -17 37 -20 0 -3 -108
-113 -240 -245 -132 -132 -240 -237 -240 -232 0 4 16 49 37 99 36 93 37 94
197 256 88 89 163 161 166 160 3 -2 22 -10 43 -18z m3122 -140 c-147 -148
-149 -148 -160 -74 -6 37 -4 42 45 89 41 40 69 57 148 87 53 20 99 37 102 37
3 1 -58 -62 -135 -139z m-2972 82 l37 -17 -350 -350 c-192 -192 -350 -344
-350 -337 0 7 7 43 16 80 l16 67 287 288 c157 158 290 287 296 286 5 0 27 -8
48 -17z m3351 -47 l20 -36 -239 -239 c-256 -256 -249 -252 -256 -166 -3 35 2
42 221 261 123 123 226 222 229 220 3 -2 15 -20 25 -40z m-3199 -34 c-4 -16
-165 -186 -428 -448 -231 -232 -422 -421 -424 -420 -1 2 2 34 8 72 l9 70 386
386 386 386 35 -10 c30 -9 33 -14 28 -36z m1919 -502 c-427 -427 -444 -441
-444 -356 l0 42 370 370 c327 327 375 371 412 381 41 10 43 9 52 -14 8 -23
-22 -55 -390 -423z m1347 409 l21 -41 -265 -265 -265 -265 -7 58 -8 57 249
249 c137 137 250 249 251 249 2 0 12 -19 24 -42z m-2758 0 c13 -2 -18 -38
-117 -137 l-134 -134 15 79 c14 77 16 81 80 145 63 64 66 66 101 59 21 -5 45
-10 55 -12z m1297 -323 l-325 -325 -3 62 -3 62 251 251 252 252 66 10 c37 6
71 11 77 11 5 1 -136 -144 -315 -323z m-1132 297 c20 -6 -4 -33 -214 -242
-232 -230 -236 -234 -230 -195 3 22 6 53 6 69 0 25 28 58 172 203 160 161 175
173 208 172 19 -1 45 -4 58 -7z m-725 -92 l-15 -75 -306 -307 -307 -308 -65 0
-65 0 385 385 c211 211 385 383 386 382 1 -1 -4 -36 -13 -77z m890 72 l37 -7
-336 -335 -336 -335 6 70 7 70 272 273 c181 181 279 272 292 271 11 0 37 -3
58 -7z m847 -197 l-205 -205 -3 62 -3 62 137 137 c146 146 139 142 244 147 34
2 28 -5 -170 -203z m-990 -190 l-375 -375 -57 0 c-32 0 -58 3 -58 7 0 5 165
173 367 375 l368 368 65 0 65 0 -375 -375z m880 280 l-95 -96 -3 63 c-3 61 -2
64 32 96 32 29 42 32 98 32 l63 0 -95 -95z m-420 33 l0 -53 -317 -317 -318
-318 -65 0 -65 0 370 370 c203 204 376 370 382 370 9 0 13 -17 13 -52z m883
-370 l-318 -318 -65 0 -65 0 370 370 370 370 13 -52 13 -52 -318 -318z m1307
317 c0 -6 -130 -141 -290 -300 l-290 -290 0 65 0 65 273 273 272 273 17 -38
c10 -21 18 -43 18 -48z m-184 -392 l-241 -243 -65 0 -65 0 290 290 290 290 16
-47 17 -48 -242 -242z m-782 270 l6 -48 -232 -232 -233 -233 -65 0 -65 0 284
284 c157 157 288 283 291 281 4 -3 10 -26 14 -52z m-1441 -295 l-218 -218 -65
0 -65 0 280 280 280 280 3 -62 3 -62 -218 -218z m-1034 227 l-11 -70 -186
-187 -187 -188 -65 0 -65 0 260 260 c142 142 260 258 262 257 1 -2 -2 -34 -8
-72z m3530 -72 l12 -47 -163 -163 -163 -163 -65 0 -65 0 210 210 c115 116 213
210 216 210 4 0 12 -21 18 -47z m-1030 -48 c1 -38 -5 -46 -141 -182 l-143
-143 -65 0 -65 0 200 200 c213 213 213 213 214 125z m-1366 -207 l-118 -118
-65 0 -65 0 180 180 180 180 3 -62 3 -62 -118 -118z m-1160 105 l-5 -68 -76
-77 -77 -78 -65 0 -65 0 145 145 c80 80 146 145 147 145 1 0 0 -30 -4 -67z
m3592 -14 l7 -51 -78 -79 -79 -79 -65 0 -65 0 130 130 c71 72 133 130 136 130
4 0 10 -23 14 -51z m-1046 -74 c1 -23 -10 -41 -51 -82 l-52 -53 -65 0 -66 0
110 110 c108 108 110 110 116 83 4 -16 7 -41 8 -58z m-3139 -570 c-63 -63
-116 -112 -118 -110 -3 2 -8 25 -13 52 l-9 47 62 63 62 63 66 0 65 0 -115
-115z m120 -80 c-107 -107 -197 -195 -201 -195 -3 0 -11 21 -17 48 l-11 47
147 148 147 147 65 0 65 0 -195 -195z m120 -80 l-275 -275 -16 47 -17 48 226
228 227 227 65 0 65 0 -275 -275z m786 186 c-49 -50 -93 -88 -98 -85 -4 3 -8
28 -8 57 0 44 4 56 32 84 30 31 36 33 97 33 l66 0 -89 -89z m109 -91 c-99 -99
-183 -180 -186 -180 -4 0 -9 24 -12 53 l-5 52 126 128 127 127 65 0 65 0 -180
-180z m110 -90 c-253 -253 -270 -268 -277 -244 -21 79 -29 68 202 299 l215
215 65 0 65 0 -270 -270z m120 -80 c-192 -192 -353 -350 -356 -350 -4 0 -11
21 -16 48 l-10 47 301 303 301 302 65 0 65 0 -350 -350z m505 327 c0 -16 -109
-131 -397 -418 -219 -218 -405 -399 -414 -402 -13 -4 -19 4 -28 36 l-10 42
382 383 382 382 42 0 c38 0 43 -3 43 -23z m485 -137 l-160 -160 -3 62 -3 62
98 98 98 98 65 0 65 0 -160 -160z m100 -100 l-260 -260 -3 62 -3 62 198 198
198 198 65 0 65 0 -260 -260z m100 -100 l-360 -360 -3 62 -3 62 298 298 298
298 65 0 65 0 -360 -360z m185 -15 l-375 -375 -51 0 c-28 0 -54 3 -58 7 -4 4
159 173 361 375 l368 368 65 0 65 0 -375 -375z m855 255 c-66 -66 -121 -120
-124 -120 -2 0 -1 30 2 66 5 64 7 68 58 120 l53 54 66 0 65 0 -120 -120z m85
-115 c-129 -129 -235 -233 -237 -231 -2 1 0 32 3 67 l7 64 165 168 166 167 66
0 65 0 -235 -235z m80 -120 c-195 -195 -356 -353 -358 -351 -1 2 2 35 9 72
l12 69 281 283 281 282 65 0 65 0 -355 -355z m446 298 l-7 -58 -407 -407
c-355 -356 -442 -435 -442 -400 0 4 7 32 15 62 14 53 26 65 417 457 222 222
409 403 417 403 11 0 12 -12 7 -57z m-3902 -354 c-153 -153 -281 -276 -284
-274 -4 2 -13 23 -20 45 l-14 41 295 295 294 294 3 -62 3 -62 -277 -277z
m2832 247 c-3 -12 -137 -152 -298 -312 l-293 -291 -59 5 -59 4 354 354 354
354 3 -47 c2 -26 1 -56 -2 -67z m-1538 -353 l-273 -273 -60 -10 c-33 -6 -69
-14 -80 -17 -11 -2 138 153 330 346 l350 351 3 -62 3 -62 -273 -273z m-1251
-50 c-139 -139 -255 -253 -258 -253 -3 0 -14 18 -24 41 l-19 40 270 270 269
269 7 -57 7 -58 -252 -252z m3839 355 c-2 -7 -10 -42 -16 -78 l-13 -65 -315
-317 -315 -316 -41 15 c-23 9 -43 18 -46 20 -3 3 740 753 747 753 1 0 1 -6 -1
-12z m-1068 -123 l-9 -70 -192 -193 -192 -192 -50 6 c-27 4 -52 9 -55 11 -2 2
110 118 250 258 140 140 255 253 256 252 1 -1 -3 -33 -8 -72z m-1405 -267
c-119 -120 -165 -159 -188 -162 -16 -3 -50 -8 -75 -11 l-45 -6 230 231 230
230 3 -62 3 -62 -158 -158z m-1320 -120 c-125 -125 -230 -228 -233 -228 -4 0
-16 17 -28 38 l-21 37 247 248 247 247 8 -57 8 -56 -228 -229z m3702 165 l-35
-98 -194 -194 -194 -194 -47 18 -47 18 273 273 c151 151 275 274 276 274 2 0
-13 -44 -32 -97z m-1012 -10 l-14 -78 -88 -88 -87 -88 -53 12 -54 11 154 154
c85 85 154 154 155 154 0 0 -6 -35 -13 -77z m-1264 -129 c-51 -52 -52 -52
-120 -56 l-69 -3 118 118 117 117 3 -61 3 -62 -52 -53z m-1175 72 l8 -39 -208
-208 -208 -208 -23 34 c-13 19 -23 38 -23 42 0 4 98 106 217 225 138 138 220
213 224 205 4 -6 10 -30 13 -51z m32 -156 l10 -49 -80 -80 c-75 -74 -88 -82
-186 -120 l-104 -40 169 169 c93 94 172 170 175 170 4 0 11 -22 16 -50z m3288
-77 c-21 -38 -64 -108 -97 -156 -45 -69 -62 -87 -75 -82 -9 4 -30 12 -46 17
l-28 11 138 138 c76 77 140 139 142 139 2 0 -14 -30 -34 -67z m-2124 -216 c0
-1 -110 -112 -244 -246 l-244 -243 -26 38 -26 39 197 198 c109 109 207 203
218 207 18 8 125 14 125 7z m-385 -187 l-179 -179 -23 41 -24 42 130 130 c141
140 132 136 256 145 13 1 -42 -61 -160 -179z m948 172 c14 -6 -4 -29 -98 -122
l-115 -115 0 65 0 64 57 58 c52 52 61 58 98 57 22 0 48 -4 58 -7z m179 -20
c14 -6 -23 -48 -187 -212 l-205 -205 0 65 0 65 147 147 c142 143 149 148 188
147 22 0 48 -4 57 -7z m-1277 -102 l-99 -99 -20 45 -19 46 39 39 c31 31 52 41
104 53 36 8 72 14 80 15 8 1 -30 -44 -85 -99z m347 -252 l-218 -219 -27 38
-27 38 242 243 243 242 3 -62 3 -62 -219 -218z m1110 323 c4 -4 -123 -137
-282 -296 l-290 -290 0 65 0 65 238 238 237 237 45 -6 c25 -3 48 -9 52 -13z
m147 -27 c17 -15 -56 -96 -364 -404 l-355 -355 0 65 0 65 322 322 c322 322
323 323 358 317 19 -4 37 -8 39 -10z m-2090 -102 c8 -16 -7 -36 -97 -125
l-107 -106 -35 29 -35 29 80 80 c52 53 93 86 120 95 54 19 63 19 74 -2z m2566
-22 c14 -5 25 -11 25 -12 0 -2 -88 -91 -196 -198 -125 -124 -187 -180 -171
-154 14 22 46 83 72 135 37 73 64 111 123 172 81 82 82 82 147 57z m-1684
-324 l-171 -171 -32 33 -33 32 200 200 200 200 3 -62 3 -62 -170 -170z m1822
272 c15 -5 27 -13 27 -17 0 -3 -57 -63 -127 -132 -135 -134 -193 -177 -338
-254 l-90 -48 235 237 c162 163 240 234 250 230 8 -3 27 -11 43 -16z m-2715
-165 l-81 -82 -28 20 c-16 11 -31 25 -35 31 -4 5 36 52 87 104 l94 94 22 -43
22 -42 -81 -82z m1980 75 c-162 -287 -361 -484 -558 -553 -41 -14 -18 11 275
305 176 176 321 320 322 320 1 0 -16 -33 -39 -72z m-1854 -93 l20 -36 -56 -56
-56 -56 -34 23 c-18 13 -35 25 -37 27 -7 5 131 143 138 138 3 -2 15 -20 25
-40z m819 -236 l-118 -118 -35 30 -35 29 150 150 150 150 3 -62 3 -62 -118
-117z m65 -136 c-29 -29 -56 -53 -61 -53 -6 0 -25 10 -44 21 l-35 22 94 94 93
94 3 -62 3 -62 -53 -54z"/>
<path d="M4396 750 c-394 -393 -722 -723 -727 -732 -8 -15 -5 -18 18 -18 23 0
137 110 711 683 376 375 692 694 703 710 11 15 19 37 17 50 -4 18 -124 -97
-722 -693z"/>
<path d="M4496 650 c-339 -338 -622 -623 -627 -632 -8 -15 -5 -18 18 -18 23 0
123 95 611 583 321 320 592 594 603 610 11 15 19 37 17 50 -4 18 -106 -80
-622 -593z"/>
<path d="M4596 550 c-284 -283 -522 -523 -527 -533 -8 -14 -5 -17 18 -17 23 0
108 81 511 483 266 265 492 494 503 510 11 15 19 37 17 50 -4 18 -89 -62 -522
-493z"/>
<path d="M4696 450 c-229 -228 -422 -423 -427 -432 -8 -15 -5 -18 18 -18 22 0
93 66 411 383 211 210 392 394 403 410 11 15 19 37 17 50 -4 18 -72 -45 -422
-393z"/>
<path d="M4796 350 c-174 -173 -322 -323 -327 -332 -8 -15 -5 -18 17 -18 23 0
80 52 312 282 156 156 293 295 303 311 11 15 19 37 17 50 -4 18 -54 -28 -322
-293z"/>
<path d="M4896 250 c-119 -118 -222 -223 -227 -232 -8 -15 -5 -18 17 -18 21 0
65 37 211 183 205 202 226 227 221 260 -3 19 -37 -11 -222 -193z"/>
<path d="M4996 150 c-136 -133 -149 -150 -111 -150 18 0 49 23 111 82 102 98
127 130 122 161 -3 19 -19 7 -122 -93z"/>
</g>
</svg>
