<?xml version="1.0" standalone="no"?>
<!DOCTYPE svg PUBLIC "-//W3C//DTD SVG 20010904//EN"
 "http://www.w3.org/TR/2001/REC-SVG-20010904/DTD/svg10.dtd">
<svg version="1.0" xmlns="http://www.w3.org/2000/svg"
 width="420.000000pt" height="420.000000pt" viewBox="0 0 420.000000 420.000000"
 preserveAspectRatio="xMidYMid meet">
<metadata>
Created by potrace 1.16, written by Peter Selinger 2001-2019
</metadata>
<g transform="translate(0.000000,420.000000) scale(0.100000,-0.100000)"
fill="#000000" stroke="none">
<path d="M1870 4174 c-484 -60 -910 -266 -1243 -599 -333 -333 -535 -748 -598
-1229 -17 -136 -7 -483 20 -621 107 -568 433 -1058 911 -1371 227 -148 490
-254 765 -305 139 -27 466 -37 611 -20 243 29 481 99 692 205 592 297 1000
838 1123 1491 27 138 37 485 20 621 -63 480 -267 899 -598 1229 -303 301 -673
496 -1097 576 -89 17 -158 22 -341 24 -126 2 -246 1 -265 -1z m140 -764 l0
-501 -32 5 c-18 3 -71 8 -118 11 -145 11 -477 79 -502 103 -20 20 157 335 287
507 89 120 330 375 353 375 9 0 12 -115 12 -500z m330 373 c145 -148 277 -319
372 -483 76 -130 141 -267 130 -274 -4 -2 -50 -16 -102 -30 -121 -32 -291 -63
-400 -71 -47 -3 -100 -8 -117 -11 l-33 -5 0 501 c0 385 3 500 12 500 7 0 69
-57 138 -127z m-766 -25 c-122 -146 -247 -337 -334 -513 l-76 -152 -34 16
c-92 40 -279 136 -328 167 l-55 36 49 50 c196 201 462 367 729 457 66 23 123
41 127 41 4 0 -31 -46 -78 -102z m1121 55 c252 -87 519 -257 708 -451 l49 -49
-29 -20 c-43 -31 -198 -113 -298 -159 l-89 -41 -76 152 c-87 176 -212 367
-334 513 -97 116 -101 113 69 55z m-1989 -704 c73 -44 244 -132 338 -173 47
-21 57 -29 51 -43 -44 -115 -99 -385 -116 -570 l-12 -133 -340 0 -340 0 7 80
c16 197 87 444 180 631 61 121 141 249 156 249 5 0 40 -18 76 -41z m2920 -30
c149 -230 258 -545 280 -809 l7 -80 -340 0 -341 0 -7 88 c-14 184 -62 443
-106 569 -10 31 -16 60 -12 64 5 4 51 26 103 50 95 42 243 121 309 164 20 13
42 24 49 24 7 1 33 -31 58 -70z m-2131 -288 c98 -24 255 -48 355 -56 41 -3 94
-8 118 -11 l42 -5 0 -265 0 -264 -425 0 -425 0 0 23 c0 110 52 406 99 565 l21
70 68 -19 c37 -11 103 -28 147 -38z m1469 -103 c33 -130 59 -279 72 -425 l7
-73 -427 0 -426 0 0 264 0 265 43 5 c23 3 94 10 157 16 123 12 366 58 465 88
47 15 62 16 68 6 4 -7 23 -73 41 -146z m-1986 -819 c14 -154 49 -352 87 -485
14 -46 25 -88 25 -93 0 -5 -15 -14 -32 -21 -61 -24 -283 -137 -351 -179 -37
-22 -72 -41 -77 -41 -15 0 -92 123 -154 247 -95 188 -166 434 -182 633 l-7 80
340 0 339 0 12 -141z m1032 -123 l0 -265 -42 -5 c-24 -2 -97 -10 -163 -16
-137 -13 -325 -49 -446 -85 -45 -14 -84 -24 -86 -22 -1 2 -18 64 -37 138 -36
142 -61 287 -72 432 l-7 87 427 0 426 0 0 -264z m1030 232 c0 -107 -39 -349
-82 -511 -26 -98 -34 -117 -47 -112 -96 39 -503 115 -612 115 -26 0 -61 3 -78
6 l-31 7 0 263 0 264 425 0 425 0 0 -32z m866 -48 c-16 -197 -87 -444 -180
-631 -61 -122 -141 -249 -156 -249 -6 0 -28 11 -49 25 -74 46 -236 132 -324
171 -75 33 -88 42 -84 59 3 11 19 72 35 135 39 149 60 274 74 438 l12 132 339
0 340 0 -7 -80z m-1896 -1140 l0 -500 -24 0 c-17 0 -55 32 -139 119 -191 199
-355 434 -462 665 l-44 95 70 21 c136 41 374 84 514 93 28 2 58 4 68 5 16 2
17 -28 17 -498z m425 474 c126 -17 254 -44 354 -74 l70 -21 -44 -95 c-64 -137
-161 -298 -262 -433 -111 -146 -309 -351 -340 -351 l-23 0 0 500 0 499 68 -5
c37 -3 117 -12 177 -20z m-1265 -176 c0 -7 31 -76 70 -153 77 -156 211 -365
318 -495 39 -47 67 -86 63 -88 -16 -6 -222 73 -326 125 -181 90 -363 223 -499
361 l-49 50 55 36 c49 31 287 154 328 169 26 9 40 8 40 -5z m2043 -64 c71 -36
154 -81 185 -100 l55 -36 -49 -50 c-136 -139 -321 -273 -500 -362 -104 -52
-308 -130 -326 -124 -4 2 24 41 63 88 106 127 231 320 315 486 41 81 74 154
74 162 0 22 37 9 183 -64z"/>
</g>
</svg>
