<svg xmlns="http://www.w3.org/2000/svg" viewBox="0 0 3190 3190" shape-rendering="geometricPrecision" text-rendering="geometricPrecision" image-rendering="optimizeQuality" fill-rule="evenodd" clip-rule="evenodd"><path d="M195 0h2800c54 0 102 22 138 57 35 35 57 84 57 138v2800c0 54-22 102-57 138-35 35-84 57-138 57H195c-54 0-102-22-138-57-35-35-57-84-57-138V195C0 141 22 93 57 57 92 22 141 0 195 0zm496 1661c17 17 40 27 66 27h743v743c0 26 11 49 27 66 17 17 40 27 66 27s49-10 66-27 27-40 27-66v-743h743c26 0 49-10 66-27s27-40 27-66-10-49-27-66-40-27-66-27h-743V759c0-26-10-49-27-66s-40-27-66-27-49 10-66 27-27 40-27 66v743H757c-26 0-49 10-66 27s-27 40-27 66 10 49 27 66z" fill-rule="nonzero"/></svg>